<?xml version="1.0" encoding="utf-8"?>
<!-- Generator: Adobe Illustrator 24.0.1, SVG Export Plug-In . SVG Version: 6.00 Build 0)  -->
<svg version="1.1" id="Layer_1" xmlns="http://www.w3.org/2000/svg" xmlns:xlink="http://www.w3.org/1999/xlink" x="0px" y="0px"
	 viewBox="0 0 333.5 116.5" style="enable-background:new 0 0 333.5 116.5;" xml:space="preserve">
<style type="text/css">
	.st0{fill:#FBFCEA;}
</style>
<path class="st0" d="M300.2,0C281.9,0,267,14.9,267,33.2c0,5.8,1.5,11.2,4.1,16l-6.4,6.4c-5.3-3.5-11.6-5.6-18.4-5.6
	c-6.9,0-13.3,2.1-18.6,5.7l-5.8-5.8c2.9-4.9,4.5-10.6,4.5-16.7c0-18.3-14.9-33.2-33.2-33.2S160,14.9,160,33.2
	c0,5.9,1.5,11.4,4.3,16.3l-5.9,5.9c-5.2-3.4-11.4-5.4-18.1-5.4c-7,0-13.5,2.2-18.9,5.9l-6.3-6.3c2.8-4.8,4.3-10.4,4.3-16.4
	C119.4,14.9,104.5,0,86.2,0C67.9,0,53,14.9,53,33.2c0,6,1.6,11.7,4.4,16.5l-5.8,5.8C46.3,52.1,40,50,33.2,50C14.9,50,0,64.9,0,83.2
	c0,18.3,14.9,33.2,33.2,33.2c18.3,0,33.2-14.9,33.2-33.2c0-6-1.6-11.7-4.4-16.5l5.8-5.8c5.3,3.5,11.6,5.6,18.4,5.6
	c6.9,0,13.2-2.1,18.5-5.6l6.4,6.4c-2.6,4.8-4.1,10.2-4.1,16c0,18.3,14.9,33.2,33.2,33.2s33.2-14.9,33.2-33.2
	c0-6.1-1.7-11.9-4.6-16.8l5.7-5.7c5.3,3.6,11.7,5.7,18.7,5.7c6.7,0,13-2,18.2-5.4l5.9,5.9c-2.7,4.8-4.3,10.4-4.3,16.4
	c0,18.3,14.9,33.2,33.2,33.2s33.2-14.9,33.2-33.2c0-6-1.6-11.6-4.4-16.5l6.3-6.3c5.4,3.7,11.9,5.9,18.9,5.9
	c18.3,0,33.2-14.9,33.2-33.2C333.4,14.9,318.5,0,300.2,0z"/>
</svg>
