<?xml version="1.0" encoding="utf-8"?>
<!-- Generator: Adobe Illustrator 24.0.1, SVG Export Plug-In . SVG Version: 6.00 Build 0)  -->
<svg version="1.1" id="Layer_1" xmlns="http://www.w3.org/2000/svg" xmlns:xlink="http://www.w3.org/1999/xlink" x="0px" y="0px"
	 viewBox="0 0 279.2 125.2" style="enable-background:new 0 0 279.2 125.2;" xml:space="preserve">
<style type="text/css">
	.st0{fill:#FBFCEA;}
</style>
<path class="st0" d="M241.6,0C220.8,0,204,16.8,204,37.6c0,5.3,1.1,10.3,3.1,14.9l-7.7,7.7c-6.7-6.3-15.8-10.2-25.7-10.2
	c-9.9,0-19,3.9-25.7,10.2l-7.7-7.7c2-4.5,3-9.6,3-14.8c0-20.8-16.8-37.6-37.6-37.6C84.8,0,68,16.8,68,37.6c0,5.1,1,9.9,2.8,14.3
	l-7.9,7.9C56.3,53.7,47.4,50,37.6,50C16.8,50,0,66.8,0,87.6c0,20.8,16.8,37.6,37.6,37.6c20.8,0,37.6-16.8,37.6-37.6
	c0-5.4-1.2-10.6-3.3-15.3l7.6-7.6c6.8,6.5,15.9,10.5,26,10.5c9.9,0,19-3.9,25.7-10.2l7.7,7.7c-2,4.5-3,9.6-3,14.8
	c0,20.8,16.8,37.6,37.6,37.6c20.8,0,37.6-16.8,37.6-37.6c0-5.2-1.1-10.2-3-14.7l7.8-7.8c6.7,6.3,15.7,10.1,25.6,10.1
	c20.8,0,37.6-16.8,37.6-37.6C279.2,16.8,262.4,0,241.6,0z"/>
</svg>
