<?xml version="1.0" encoding="utf-8"?>
<!-- Generator: Adobe Illustrator 24.0.1, SVG Export Plug-In . SVG Version: 6.00 Build 0)  -->
<svg version="1.1" id="Layer_1" xmlns="http://www.w3.org/2000/svg" xmlns:xlink="http://www.w3.org/1999/xlink" x="0px" y="0px"
	 viewBox="0 0 90.8 83.8" style="enable-background:new 0 0 90.8 83.8;" xml:space="preserve">
<style type="text/css">
	.st0{fill:#C3824B;}
	.st1{fill:#756A5B;}
	.st2{fill:#93A2FD;}
	.st3{fill:#715751;}
	.st4{fill:#94A2FC;}
	.st5{fill:#715651;}
	.st6{fill:#94A2F7;}
	.st7{fill:#705650;}
	.st8{fill:#A6734D;}
	.st9{fill:#EC8089;}
	.st10{fill:#8D664E;}
	.st11{fill:#D0C063;}
	.st12{fill:#C3834B;}
	.st13{fill:#F3F3F3;}
	.st14{fill:#F4F3F3;}
	.st15{fill:#81745B;}
	.st16{fill:#796E5B;}
	.st17{fill:#6867A0;}
	.st18{fill:#6967A0;}
</style>
<g>
	<path class="st0" d="M88.8,23.2c0.1,3-1.4,5.4-3.9,6.7c-2.3,1.2-1.8,2.1-0.7,3.8c5.8,9.1,7.9,19,5.8,29.5
		c-2.1,10.5-10,15.3-19.5,17.6c-16,3.7-32.2,4.2-48.2,0.1C1.9,75.6-5.1,59.2,3.8,39.1c1.3-2.8,2.7-5.6,4.7-8
		c1.1-1.3,1.5-2.2-0.2-3.6c-2.5-2-3.3-4.8-2.7-8c1.6-1.4,3.5-1.1,5.4-1.1c0.2,0.1,0.6,0.2,0.6,0.4c0.7,4,3.2,4.6,6.6,3.6
		c0.8,2.1,3.3,1.2,4.6,2.6c-0.3,2.1-2.3,2.8-3.7,4C12.5,34.6,8.7,41.7,8.6,50.5c0,2.4,0.7,4.6,1.9,6.7c2.1,3.6,5.8,5.1,9.9,3.9
		c3.7-1,6.6-3.4,9.3-6c9.1-8.4,20.9-8.5,30.1-0.2c2.7,2.4,5.5,4.6,9,5.8c6.8,2.3,12.9-1.2,14.2-8.3c1.4-7.8-2.3-13.9-7.1-19.6
		c-2.2-2.6-5-4.4-7.8-6.2c-0.4-0.4-0.6-0.9-0.6-1.5c0.1-0.4,0.3-0.6,0.6-0.8c1.5-0.3,3,0.4,4.4-0.2c1-0.7,2-1.7,3.2-0.6
		c2.7,2.6,5,1.9,7.1-0.7c0.3-0.4,0.9-0.5,1.3-0.6C85.9,22.2,87.4,22,88.8,23.2z"/>
	<path class="st1" d="M37.7,0.9c0.1,0,0.3,0,0.4-0.1c1-0.7,1.9-0.2,2.7,0.5c3.1,2.8,6.9,3.1,10.2,0.8c2.4-1.7,4.6-1,6.7,0.6
		c0.5,1.9,1.7,3.1,3.4,4.1c5.5,3.5,7.2,9,7.9,15.1c0.1,1-0.1,2-0.9,2.7l0,0c-1,0.5-1.9,0.1-2.8-0.3C59.2,21.8,53,20.1,46.6,20
		c-6.8-0.1-13.5,1-19.7,4c-3.2,0.4-4.1-0.3-3.7-3.5c0.8-5.7,3-10.6,8-14c1.5-1,3.6-1.5,3.7-4C35,1.3,36.7,1.4,37.7,0.9z"/>
	<path class="st2" d="M37.7,0.9c-1.1,1-3,1.2-2.3,3.5C35.8,6,33.9,6.1,33,6.6c-6.1,3.3-8.1,8.8-8.9,15.2c-0.3,2.3,0.8,2.1,2.3,1.5
		c0.8,1.8-0.3,2.3-1.8,2.6c-0.8-0.1-1.4-0.4-1.9-1.1c-1.7-0.4-4.9,2-4.5-2.4c-0.7-4.1,1.8-7.4,3-11c0.3-0.5,0.5-1.1,0.9-1.5
		c1.8-1.7,1.4-3-0.7-4c4,0.3,7-2.2,10.4-3.6C33.6,1.4,35.5,0.6,37.7,0.9z"/>
	<path class="st3" d="M88.8,23.2c-1.7,0-3.4-0.1-5.1-0.1c-1.7-2.2-1.9-5.2-4.5-7c-2.8-2-5.8-3-9.1-3.5c-1.8-1.5-3.5-3-2.9-5.7
		C77.3,4.5,89,13.3,88.8,23.2z"/>
	<path class="st4" d="M67.1,6.9c1,1.7,2,3.5,3,5.2c3.1,3.9,4.5,8.3,3.2,13.3c-1.9,0.4-3.7,0.1-5.4-0.7c-0.1-7.9-2-14.8-9.8-18.4
		c-1.7-0.8-1.3-1.8-0.7-3c-0.4-0.9,0.2-1.2,0.8-1.5C61.8,2.5,64.5,4.6,67.1,6.9z"/>
	<path class="st5" d="M21.3,5.8c1.2,0.1,2.4,0.1,4.1,0.2C24.1,8,23.1,9.6,22,11.3c-4.1,1.8-8.1,3.6-10.8,7.4
		c-1.7,1.4-3.7,0.6-5.6,0.8C6.4,11.9,11.9,7.1,21.3,5.8z"/>
	<path class="st6" d="M58.2,1.8c-0.3,0.5-0.5,1-0.8,1.5c-2.2-1.2-4.4-4-6.1,0.6c-0.4,1.2-1.7,0.6-2.6,0.6c-1.3,0.1-2.7,0-4.1,0
		c-1.8,0-3.9,0.8-4.1-2.3c-0.1-0.9-1.5-1-2.5-1.3C44.9-0.6,51.6-0.2,58.2,1.8z"/>
	<path class="st7" d="M22.6,24.8c0.6-0.2,1.1,0.1,1.4,0.6c3.2,4.1,3.6,4.3,8.1,1.4c8.9-5.8,17.6-6.2,26.6-0.1
		c4.7,3.1,4.8,2.9,9.4-0.6c9.6,4.8,15.1,12.5,16.2,23.2c0.5,5-1.4,9.3-5.9,12c-4.4,2.6-8.8,1.6-13-0.8c-2.3-1.3-4.3-2.8-6.2-4.7
		c-8.3-8-20.4-7.9-28.7,0.1c-1.8,1.7-3.7,3.3-5.8,4.6c-8.5,5.1-16.8,0.5-17-9.4c-0.2-10.6,4.8-18.6,13.2-24.7
		C21.5,25.8,22.1,25.3,22.6,24.8z"/>
	<path class="st2" d="M68.1,26c-2.4,5-3.7,5.6-8,2.5c-9.5-6.8-18.8-7-28.5-0.3c-4.5,3.1-6.5,2.1-7.5-2.8c1.4-0.1,2.2-0.8,2.3-2.2
		c12.6-5.8,25.3-5.5,38-0.3c1.3,0.5,2.5,1.1,3.7,1.7C68,25.1,68.1,25.6,68.1,26z"/>
	<path class="st7" d="M35.9,57.4c2.1-2.3,5.3-3.1,7.8-4.9c0.6-0.4,1.5-0.5,2.1-0.1c2.3,1.8,5.3,2.7,7.3,4.9c1.5,4-0.1,7.6-4.1,9.8
		c-3.3,1.7-8.2,1.1-11.1-1.5C35.2,63.1,34.6,60.9,35.9,57.4z"/>
	<path class="st8" d="M54.6,58.2c7,3.9,3.2,13-2.4,15.3c-4.6,1.8-9.5,1.8-14.1,0.3c-6.7-2.1-9.1-10.9-3.6-15.6
		c1.1,1.1,0.6,2.6,0.8,3.9c0.7,5.1,4.7,8.1,10.4,7.7c4.9-0.3,9.5-4.1,8.5-9.2C54,59.8,53.8,58.9,54.6,58.2z"/>
	<path class="st9" d="M73.4,25.4c0.2-4.7-2-8.9-3.2-13.3c7.5,0,12.8,4.3,13.5,11.1c-3.8,4.4-4.4,4.6-8,1.3
		C73.8,22.8,74,24.8,73.4,25.4z"/>
	<path class="st10" d="M54.6,58.2c1.6,5.9,0.1,9.6-4.7,11.6c-5.4,2.3-11.9,0.5-14.5-3.7c-1.6-2.6-0.5-5.3-0.8-8
		c0.5-0.3,1-0.5,1.4-0.8c0.1,6.4,3,9.7,8.8,9.7c5.3,0.1,8.2-3.3,8.4-9.7C53.6,57.6,54.1,57.9,54.6,58.2z"/>
	<path class="st9" d="M11.2,18.7c1.7-5.2,5.9-6.9,10.8-7.4c-1.3,3.7-2.6,7.4-3.9,11.2C13.1,25.2,11.7,24.4,11.2,18.7z"/>
	<path class="st11" d="M46.1,7.6c2,0,4-0.1,5.9,0c2.3,0.1,4.2,1,4.7,3.4c0.5,2.2,0.2,4.2-2,5.5c-2.3,1.3-4,0.5-5.6-1.2
		c-1.8-2-3.6-2.3-5.6,0C42,17,40,17.8,37.9,16.3c-1.8-1.2-3-2.8-2.3-5c0.7-2.3,2.3-3.8,4.9-3.8C42.3,7.5,44.2,7.5,46.1,7.6
		C46.1,7.5,46.1,7.5,46.1,7.6z"/>
	<path class="st0" d="M15.6,47.7c-1.4-4.8,0-9.1,3.2-12.6c4.5-5,12.4-2.6,14.1,3c-0.8,1-2.1,1.1-3.2,1.6c-3.6,1.7-7.2,3.3-10.5,5.5
		C17.8,45.7,17.1,47.3,15.6,47.7z"/>
	<path class="st12" d="M59.2,39.6c3-4.6,5.9-6.3,10-5.1c4.5,1.3,6.7,5,7.5,9.3c0.4,1.9,0.7,4.1-0.4,6.1c-1.5-1-2.6-2.4-4.2-3.2
		c-2.9-2.1-6.2-3.4-9.4-5C61.6,41,60.2,40.7,59.2,39.6z"/>
	<path class="st13" d="M59.2,39.6c1.3,0.1,2.5,0.5,3.5,1.4c0.9,1,0.3,2.1,0.3,3.2c-0.1,1.7,0.3,3.2,1.2,4.6c2,2.9,4.6,2.9,6.6,0.1
		c0.6-0.9,0.5-2.2,1.9-2.6c1.7,0.7,3.6,1.2,3.6,3.6c-2.5,5.5-5.9,7.6-10.2,6.3c-5.1-1.5-8.6-7.5-7.7-13.3
		C58.6,41.7,59,40.7,59.2,39.6z"/>
	<path class="st14" d="M15.6,47.7c0.3-1.9,2-2.4,3.4-3.3c1.3,0.3,1.5,1.6,2.1,2.4c2,3,5.2,2.7,7-0.4c1.4-2.4,0.2-5.1,1.3-7.5
		c1.1-0.6,2.2-1.1,3.5-0.9c1,3.4,1.1,6.7-0.3,10c-1.8,4.2-5.1,6.6-8.9,6.5C19.1,54.4,16.9,51.5,15.6,47.7z"/>
	<path class="st15" d="M42.6,12.4c-0.1,1-0.7,1.7-1.7,1.6c-1-0.2-1.8-0.9-1.7-2.1c0.1-0.8,0.7-1.3,1.5-1.3
		C42,10.6,42.5,11.3,42.6,12.4z"/>
	<path class="st16" d="M53.4,12.4c-0.3,1-0.8,1.8-2,1.7c-1-0.1-1.4-0.9-1.3-1.9c0.1-1,0.7-1.6,1.7-1.5
		C52.9,10.7,53.2,11.5,53.4,12.4z"/>
	<path class="st17" d="M29.3,38.9c0.5,2.2,0.8,4.3,0.2,6.5c-0.8,2.8-2.4,4.5-5.4,4.7c-3,0.1-3.9-2-4.6-4.3c-0.2-0.5-0.3-0.9-0.5-1.4
		C22.1,42.1,25.7,40.5,29.3,38.9z"/>
	<path class="st18" d="M72.7,46.3c-0.5,2.9-1.5,5.7-5,5.8c-3,0.1-5.6-3.3-5.6-7.1c0-1.3,0.4-2.6,0.6-4
		C66.4,42.2,69.8,43.8,72.7,46.3z"/>
</g>
</svg>
