<?xml version="1.0" encoding="utf-8"?>
<!-- Generator: Adobe Illustrator 24.0.1, SVG Export Plug-In . SVG Version: 6.00 Build 0)  -->
<svg version="1.1" id="Layer_1" xmlns="http://www.w3.org/2000/svg" xmlns:xlink="http://www.w3.org/1999/xlink" x="0px" y="0px"
	 viewBox="0 0 469 135" style="enable-background:new 0 0 469 135;" xml:space="preserve">
<style type="text/css">
	.st0{fill:#fefff1;}
</style>
<path class="st0" d="M401.5,0c-34.7,0-63.3,26.2-67.1,59.8h-32.9C297.8,26.2,269.2,0,234.5,0s-63.3,26.2-67.1,59.8h-32.9
	C130.8,26.2,102.2,0,67.5,0C30.2,0,0,30.2,0,67.5S30.2,135,67.5,135c32.6,0,59.8-23.1,66.1-53.8h34.7c6.3,30.7,33.5,53.8,66.1,53.8
	s59.8-23.1,66.1-53.8h34.7c6.3,30.7,33.5,53.8,66.1,53.8c37.3,0,67.5-30.2,67.5-67.5S438.8,0,401.5,0z"/>
</svg>
