<?xml version="1.0" encoding="utf-8"?>
<!-- Generator: Adobe Illustrator 24.0.1, SVG Export Plug-In . SVG Version: 6.00 Build 0)  -->
<svg version="1.1" id="Layer_1" xmlns="http://www.w3.org/2000/svg" xmlns:xlink="http://www.w3.org/1999/xlink" x="0px" y="0px"
	 viewBox="0 0 794.5 126.5" style="enable-background:new 0 0 794.5 126.5;" xml:space="preserve">
<style type="text/css">
	.st0{fill:#FEFFF1;}
</style>
<path class="st0" d="M731.2,0c-31.3,0-57.2,22.7-62.3,52.5h-10.4C653.4,22.7,627.5,0,596.2,0S539,22.7,533.9,52.5h-8.4
	C520.4,22.7,494.5,0,463.2,0S406,22.7,400.9,52.5h-9.4C386.4,22.7,360.5,0,329.2,0S272,22.7,266.9,52.5h-8.4
	C253.4,22.7,227.5,0,196.2,0S139,22.7,133.9,52.5h-8.4C120.4,22.7,94.5,0,63.2,0C28.3,0,0,28.3,0,63.2c0,34.9,28.3,63.2,63.2,63.2
	c31.3,0,57.2-22.7,62.3-52.5h8.4c5.1,29.8,31,52.5,62.3,52.5s57.2-22.7,62.3-52.5h8.4c5.1,29.8,31,52.5,62.3,52.5
	s57.2-22.7,62.3-52.5h9.4c5.1,29.8,31,52.5,62.3,52.5s57.2-22.7,62.3-52.5h8.4c5.1,29.8,31,52.5,62.3,52.5s57.2-22.7,62.3-52.5h10.4
	c5.1,29.8,31,52.5,62.3,52.5c34.9,0,63.2-28.3,63.2-63.2C794.4,28.3,766.1,0,731.2,0z"/>
</svg>
