<?xml version="1.0" encoding="utf-8"?>
<!-- Generator: Adobe Illustrator 24.0.1, SVG Export Plug-In . SVG Version: 6.00 Build 0)  -->
<svg version="1.1" id="Layer_1" xmlns="http://www.w3.org/2000/svg" xmlns:xlink="http://www.w3.org/1999/xlink" x="0px" y="0px"
	 viewBox="0 0 74.8 214.3" style="enable-background:new 0 0 74.8 214.3;" xml:space="preserve">
<g>
	<path d="M0.1,101.5C0.6,95.1,3.7,89.9,7.3,85C16.1,72.9,25,60.8,33.9,48.8C43,36.4,52.2,23.9,61.3,11.5c2.3-3.2,4.5-6.5,6.8-9.6
		c1.6-2.1,2.9-2.3,4.5-1.1c1.5,1.2,1.8,2.1,0.7,3.8c-1.5,2.5-3.1,5-4.9,7.4c-13,17.8-26,35.5-39,53.2c-6,8.2-12.1,16.4-18.2,24.6
		c-3.5,4.7-5.8,10.1-6,15.9c-0.3,6.4,2.2,12.2,6,17.4c8.8,12.1,17.6,24.1,26.5,36.2c10.1,13.8,20.3,27.6,30.5,41.3
		c1.3,1.8,3.3,4.8,4.6,6.6c2.8,3.8,2.8,3.8-1.1,6.6c-0.9,0.5-1,0.8-1.8,0c-6.9-9.6-13.8-19.2-20.7-28.7
		c-7.7-10.6-15.5-21.2-23.2-31.8c-6-8.2-11.9-16.5-18-24.6c-4-5.3-7.3-10.9-7.9-17.7l0.1-5.1L0.1,101.5z"/>
</g>
</svg>
