<?xml version="1.0" encoding="utf-8"?>
<!-- Generator: Adobe Illustrator 24.0.1, SVG Export Plug-In . SVG Version: 6.00 Build 0)  -->
<svg version="1.1" id="Layer_1" xmlns="http://www.w3.org/2000/svg" xmlns:xlink="http://www.w3.org/1999/xlink" x="0px" y="0px"
	 viewBox="0 0 308.7 97.7" style="enable-background:new 0 0 308.7 97.7;" xml:space="preserve">
<style type="text/css">
	.st0{fill:#fbfcea;}
</style>
<path class="st0" d="M259.9,0c-24.4,0-44.5,17.8-48.2,41.1h-8.5C199.4,17.8,179.2,0,154.9,0s-44.5,17.8-48.2,41.1h-9.5
	C93.4,17.8,73.2,0,48.9,0C21.9,0,0,21.9,0,48.9s21.9,48.9,48.9,48.9c24.5,0,44.8-18,48.3-41.5h9.4c3.5,23.5,23.8,41.5,48.3,41.5
	s44.8-18,48.3-41.5h8.4c3.5,23.5,23.8,41.5,48.3,41.5c27,0,48.9-21.9,48.9-48.9S286.8,0,259.9,0z"/>
</svg>
