<?xml version="1.0" encoding="utf-8"?>
<!-- Generator: Adobe Illustrator 24.0.1, SVG Export Plug-In . SVG Version: 6.00 Build 0)  -->
<svg version="1.1" id="Layer_1" xmlns="http://www.w3.org/2000/svg" xmlns:xlink="http://www.w3.org/1999/xlink" x="0px" y="0px"
	 viewBox="0 0 82.6 47.2" style="enable-background:new 0 0 82.6 47.2;" xml:space="preserve">
<g>
	<path d="M65.4,13.9c1.2-1.5,1.9-2.6,2.8-3.6c3.2-3.2,6.6-6,11.6-5.7c2.2,0.1,2.9,0.9,2.5,3.1c-0.1,0.7-0.4,1.4-0.8,2.1
		c-0.7,1.6-1.5,3.1-2.3,4.7c-3,5.8-3.2,11.6-0.1,17.4c0.9,1.6,1.7,3.3,2.4,5c0.5,1.2,0.7,2.5,1,3.7c-2.1,1.5-3.8,1.4-5.9,0.9
		c-4.8-1.3-7.7-4.8-10.7-8.3c-0.7-0.8-1.2-1.9-2-3c-0.7,0.7-1.5,1.2-2,1.9c-2.5,4-6.3,6.7-10.1,9.2c-6.1,4-12.9,6.4-20.3,5.9
		c-9-0.6-17.1-3.5-23.7-10.1c-3.6-3.6-6.2-7.6-7.5-12.6c-1-3.8-0.2-7.1,1.1-10.4c2-5,6.3-8,11-10.1c6.4-2.9,13.1-4,20.2-4
		C38.9,0,45,0.6,50.9,2.7c5.5,1.9,10.4,4.7,13.5,9.9C64.6,12.9,64.9,13.2,65.4,13.9z M19.4,16.6c0,0,0.1-0.5,0-1
		c-0.3-2.5-2.4-4.6-4.8-5c-2-0.3-4.2,1-5.4,3c-1.4,2.4-1.3,4.6,0.1,6.9c1.8,3,5.1,3.8,7.8,1.7C18.7,20.9,19.6,19.2,19.4,16.6z"/>
</g>
</svg>
