<?xml version="1.0" encoding="utf-8"?>
<!-- Generator: Adobe Illustrator 24.0.1, SVG Export Plug-In . SVG Version: 6.00 Build 0)  -->
<svg version="1.1" id="Layer_1" xmlns="http://www.w3.org/2000/svg" xmlns:xlink="http://www.w3.org/1999/xlink" x="0px" y="0px"
	 viewBox="0 0 99.3 63" style="enable-background:new 0 0 99.3 63;" xml:space="preserve">
<style type="text/css">
	.st0{fill:#4C3E35;}
	.st1{fill:#E2C754;}
	.st2{fill:#ECC75D;}
	.st3{fill:#867B5D;}
</style>
<g>
	<path class="st0" d="M67.1,58c3.2,0.6,6,2.5,9,3.6c1.6,0.6,3.3,1,4.9,1c2.8,0,4.6-1.8,5.7-4.3c1-2.3-0.7-3.7-2-5.1
		c-0.7-0.7-1.4-1.4-2.2-2c-1.5-1.1-1.3-1.8,0.4-2.6c4.6-2.2,8.8-5.2,11.9-9.3c1.5-2,2.9-4.2,3.9-6.5c1.1-2.5,0.5-3.1-2.2-3.6
		c-1.6-0.2-3.2-0.8-4.9-1.2c-1.1,1.3-2.2,2.5-3.1,3.9c-2.5,3.9-6.4,5.8-10.7,5.6c-2.6-0.1-5.5-1.9-6.3-5c-1.4-5.7,0.1-10,6.5-11.7
		c3.2-0.8,6.7-0.7,10-1c-1.1-4.9-4.2-7.9-8.7-9.5c-2.1-0.8-3.3-1.4-2.7-4.2c0.3-1.4-0.3-3.6-1.3-4.6c-2.1-2.1-4.9-1.5-7.5-0.7
		c-2.3,0.7-3,2.3-2.6,4.6c0.3,1.5-0.5,1.7-1.7,1.5c-0.7-0.1-1.4-0.2-2.1-0.3c-9.1-0.6-18,0-26.6,3c-6.8,2.4-12,6.9-13.8,14.3
		c-1.7,7.5-1.2,14.7,3.5,21.1c1.4,1.9,1.1,3-0.2,4.7c-1.2,1.5-2.1,3.3-3.1,5c-0.7,1.2-0.5,2.4,0.4,3.6c3.4,4.8,8.8,6.3,13.5,3
		c5.4-3.7,11.1-5.4,17.5-5C52.6,56.3,58.2,56.3,67.1,58z"/>
	<path class="st1" d="M91.7,28c-1.1,1.3-2.2,2.5-3.1,3.9c-2.5,3.9-6.4,5.8-10.7,5.6c-2.6-0.1-5.5-1.9-6.3-5
		c-1.4-5.7,0.1-10,6.5-11.7c3.2-0.8,6.7-0.7,10-1C89.3,22.5,90.5,25.3,91.7,28z"/>
	<circle class="st0" cx="81.9" cy="29.1" r="2.9"/>
</g>
<g>
	<path class="st0" d="M16,21.2c0.3,1.6,0.4,3.3,0.9,4.8c0.9,2.4,3,3.6,5.5,4c0.1,0.2,0.2,0.3,0.2,0.4c1.1,4.4,0.8,4.8-3.8,4.8
		c-9.5,0-15.7-4.6-18.2-13.4c-0.1-0.4-0.1-0.8-0.1-1.2c2.4-1.1,4.5-0.2,6.5,1.1C10,23.4,13.1,23.5,16,21.2z"/>
	<path class="st2" d="M16,21.2c-2.9,2.3-5.9,2.2-9,0.4c-2.1-1.2-4.1-2.1-6.5-1.1c-1.1-3.6-0.3-6.8,2.3-9.5c2.5-2.6,5.6-3.4,9-2.3
		c2.8,0.9,4.7,3.3,4.7,6.3C16.5,17.2,16.2,19.2,16,21.2z"/>
</g>
<ellipse class="st3" cx="73.3" cy="4.4" rx="1.6" ry="2.5"/>
</svg>
