<?xml version="1.0" encoding="utf-8"?>
<!-- Generator: Adobe Illustrator 24.0.1, SVG Export Plug-In . SVG Version: 6.00 Build 0)  -->
<svg version="1.1" id="Layer_1" xmlns="http://www.w3.org/2000/svg" xmlns:xlink="http://www.w3.org/1999/xlink" x="0px" y="0px"
	 viewBox="0 0 33 31.2" style="enable-background:new 0 0 33 31.2;" xml:space="preserve">
<style type="text/css">
	.st0{fill:#4C6AB0;}
</style>
<g>
	<path class="st0" d="M15.4,26.4c-7.1,0-12.9-5.5-12.9-12.3c0-6.8,5.8-12.3,12.9-12.3c7.1,0,12.9,5.5,12.9,12.3c0,0.1,0,0.3,0,0.4
		l2.4,2.2c0-0.4,0.1-0.9,0.1-1.3C30.7,6.9,23.8,0,15.4,0C6.9,0,0,6.9,0,15.4c0,8.5,6.9,15.4,15.4,15.4c2.2,0,4.3-0.5,6.2-1.3
		L18,26.1C17.2,26.3,16.3,26.4,15.4,26.4z"/>
</g>
<polyline class="st0" points="20.1,22.7 26.6,16.2 33,22.7 "/>
<polyline class="st0" points="33,24.7 26.6,31.2 20.1,24.7 "/>
<g>
	<path class="st0" d="M17.8,11.8c0.1-0.2,0.2-0.5,0.2-0.8s-0.1-0.6-0.2-0.8c-0.1-0.2-0.3-0.4-0.5-0.5c-0.2-0.1-0.4-0.2-0.7-0.2
		c-0.3,0-0.5-0.1-0.8-0.1h-1.8v3.2h1.8c0.3,0,0.5,0,0.8-0.1c0.3,0,0.5-0.1,0.7-0.2C17.5,12.2,17.7,12,17.8,11.8z"/>
	<path class="st0" d="M15.4,3.4c-5.9,0-10.6,4.5-10.6,10s4.7,10,10.6,10c0.2,0,0.4,0,0.6,0l9.9-10.7C25.5,7.5,21,3.4,15.4,3.4z
		 M18.1,18.1l-2.5-4.4h-1.5v4.4h-1.3V8.2h3.5c0.6,0,1.2,0.1,1.6,0.3c0.4,0.2,0.7,0.4,1,0.7c0.2,0.3,0.4,0.6,0.5,0.9
		c0.1,0.3,0.1,0.7,0.1,1c0,0.3-0.1,0.6-0.2,0.9s-0.3,0.6-0.5,0.8c-0.2,0.2-0.5,0.4-0.8,0.6c-0.3,0.2-0.6,0.3-1,0.3l2.8,4.5H18.1z"/>
</g>
</svg>
