<?xml version="1.0" encoding="utf-8"?>
<!-- Generator: Adobe Illustrator 24.0.1, SVG Export Plug-In . SVG Version: 6.00 Build 0)  -->
<svg version="1.1" id="Layer_1" xmlns="http://www.w3.org/2000/svg" xmlns:xlink="http://www.w3.org/1999/xlink" x="0px" y="0px"
	 viewBox="0 0 324.2 125.2" style="enable-background:new 0 0 324.2 125.2;" xml:space="preserve">
<style type="text/css">
	.st0{fill:#fbfcea;}
</style>
<path class="st0" d="M286.6,50c-9.1,0-17.4,3.2-23.9,8.6l-4.4-4.4c2.5-5,3.9-10.7,3.9-16.6c0-20.8-16.8-37.6-37.6-37.6
	C203.8,0,187,16.8,187,37.6c0,5.6,1.2,10.9,3.4,15.7l-4.1,4.1c-6.5-5.3-14.7-8.4-23.7-8.4c-9.3,0-17.9,3.4-24.5,9.1l-3.8-3.8
	c2.5-5,3.9-10.7,3.9-16.6c0-20.8-16.8-37.6-37.6-37.6C79.8,0,63,16.8,63,37.6c0,5.6,1.2,10.9,3.4,15.7l-4.6,4.6
	c-6.5-5.5-15-8.9-24.2-8.9C16.8,49,0,65.8,0,86.6c0,20.8,16.8,37.6,37.6,37.6c20.8,0,37.6-16.8,37.6-37.6c0-6.6-1.7-12.8-4.7-18.2
	l3.9-3.9c6.8,6.6,16,10.7,26.2,10.7c9.8,0,18.8-3.8,25.5-10l3.4,3.4c-2.9,5.3-4.6,11.4-4.6,17.9c0,20.8,16.8,37.6,37.6,37.6
	c20.8,0,37.6-16.8,37.6-37.6c0-6.9-1.9-13.3-5.1-18.9l3.2-3.2c6.8,6.6,16,10.7,26.2,10.7c9.8,0,18.8-3.8,25.5-10l3.8,3.8
	c-3.1,5.5-4.9,11.8-4.9,18.6c0,20.8,16.8,37.6,37.6,37.6c20.8,0,37.6-16.8,37.6-37.6C324.2,66.8,307.4,50,286.6,50z"/>
</svg>
