<?xml version="1.0" encoding="utf-8"?>
<!-- Generator: Adobe Illustrator 24.0.1, SVG Export Plug-In . SVG Version: 6.00 Build 0)  -->
<svg version="1.1" id="Layer_1" xmlns="http://www.w3.org/2000/svg" xmlns:xlink="http://www.w3.org/1999/xlink" x="0px" y="0px"
	 viewBox="0 0 834.8 284.4" style="enable-background:new 0 0 834.8 284.4;" xml:space="preserve">
<style type="text/css">
	.st0{fill:#FFFFFF;}
</style>
<path class="st0" d="M832.7,79c-2.2-12.9-7.9-24.4-17.2-33.9c-12.1-12.3-27.3-19-43.4-24c-22.7-7-46.3-10-69.8-12.7
	c-14.4-1.6-28.9-2.7-43.4-3.8c-13.8-1-27.6-1.7-41.4-2.2c-17.3-0.7-34.6-1.1-52-1.5c-18.8-0.4-37.7-0.7-56.5-0.8
	c-30.6-0.1-61.1,0-91.7,0c-30.6,0-61.1-0.1-91.7,0c-18.8,0.1-37.7,0.4-56.5,0.8c-17.3,0.4-34.6,0.8-52,1.5
	c-13.8,0.5-27.6,1.3-41.4,2.2c-14.5,1-28.9,2.1-43.4,3.8C109,11,85.5,14,62.7,21c-16.1,5-31.3,11.7-43.4,24C10,54.6,4.3,66.1,2.1,79
	c-3.5,20.2-3.1,40.4,5.2,59.5c4.4,10.1,10.7,19.5,16.5,29c4.7,7.6,9.2,15.1,7.9,24.5c-0.8,5.5-2.3,10.8-3.2,16.3
	c-2.4,14.7-3,29.2,7,41.8c7,8.8,16.7,13.9,27,17.8c13,4.8,26.5,7.4,40.2,9.1c24.1,3.1,48.4,3.3,72.6,3.7c32.3,0.6,64.6,1.7,96.8,2.2
	c48.4,0.7,96.8,1,145.2,1.5c48.4-0.5,96.8-0.8,145.2-1.5c32.3-0.5,64.6-1.6,96.8-2.2c24.3-0.4,48.5-0.7,72.6-3.7
	c13.7-1.7,27.3-4.3,40.2-9.1c10.3-3.8,19.9-8.9,27-17.8c10-12.6,9.5-27.1,7-41.8c-0.9-5.5-2.5-10.8-3.2-16.3
	c-1.3-9.4,3.2-16.9,7.9-24.5c5.8-9.5,12.1-18.8,16.5-29C835.8,119.4,836.2,99.2,832.7,79z"/>
</svg>
