<svg xmlns="http://www.w3.org/2000/svg" xmlns:xlink="http://www.w3.org/1999/xlink" x="0px" y="0px" viewBox="0 0 48 35.1" style="enable-background:new 0 0 48 35.1;" xml:space="preserve">
	<path fill="#d1cdba" d="M39.8,7.2C39,6.8,38.1,6.1,39.3,5c1.8-1.6,2.7-4-3.4-4.9C29.7-0.8,32,3.4,32.5,4c0.3,0.3,0.1,1.1-0.4,1.8
		c-2.7-0.3-5.4-0.5-8.1-0.5c-2.7,0-5.4,0.2-8,0.5c-0.5-0.7-0.7-1.5-0.4-1.8c0.5-0.6,2.8-4.8-3.4-3.9C6.2,1,7.1,3.4,8.9,5
		c1,0.9,0.5,1.6-0.2,2C5.7,7.8,2.8,8.7,0,9.8v25.3h48V9.8C45.3,8.7,42.6,7.9,39.8,7.2z M33.9,24.9c0,0-3,0.5-6.9-3.9
		c-0.4-0.5-0.9-0.9-1.5-1c-0.5-0.1-1-0.2-1.7,0c-0.7,0.2-1.3,0.7-1.8,1.3c-0.9,1.2-3.2,3.6-6.8,3.6c0,0-7,0.1-7-6.8
		c0-6.7,6.2-7.6,9.8-7.7c0.2,0,0.3,0,0.5,0c1.3,0.1,7.6,0.8,13.1,0c0.1,0,0.2,0,0.4,0c1.3,0,8.6,0.1,8.6,7.2
		C40.6,25.5,33.9,24.9,33.9,24.9z"/>
	<circle fill="#d1cdba" cx="16.7" cy="17.6" r="2.6"/>
	<circle fill="#d1cdba" cx="32.7" cy="17.6" r="2.6"/>
</svg>
