<svg xmlns="http://www.w3.org/2000/svg" xmlns:xlink="http://www.w3.org/1999/xlink" x="0px" y="0px" viewBox="0 0 188.9 106.4" style="enable-background:new 0 0 188.9 106.4;" xml:space="preserve">
  <path fill="#c9dff7" d="M146.2,32.3c-2.5-0.4-5.1-0.6-7.7-0.6l-9.9-0.1c-0.2-5.2-0.6-11.8-1.2-18.7c-1.5-14.9-14.2-12.7-14.2-12.7 s-19.8,2.2-36.5,4C59.9,5.9,62.3,18.3,62.3,18.3L62.8,31l-2.2,0C26.2,31,0,41.9,0,68.6c0,41.2,64.2,38.3,75.5,37.4 c1.3-0.1,2.6-0.1,3.9-0.1h57.6c0,0,51.9,1.4,51.9-40.1C188.9,46,172.3,36.4,146.2,32.3z"/>
  <path fill="#5D78BB" d="M133.8,100.9c0,0,48.5,2.3,48.5-35.1c0-15.2-11.3-22.2-29.7-26.3c-7.5-1.6-15.2-2.4-22.8-2.5l-67.4-0.6 c-32.1,0-56.6,7.8-56.6,31.9c0,37.1,60,32.7,70.5,32.7L133.8,100.9z"/>
</svg>
