<?xml version="1.0" encoding="utf-8"?>
<!-- Generator: Adobe Illustrator 24.0.1, SVG Export Plug-In . SVG Version: 6.00 Build 0)  -->
<svg version="1.1" id="Layer_1" xmlns="http://www.w3.org/2000/svg" xmlns:xlink="http://www.w3.org/1999/xlink" x="0px" y="0px"
	 viewBox="0 0 615 135" style="enable-background:new 0 0 615 135;" xml:space="preserve">
<style type="text/css">
	.st0{fill:#FEFFF1;}
</style>
<path class="st0" d="M547.5,0c-33.5,0-61.2,24.4-66.6,56.3h-26.9C448.7,24.4,421,0,387.5,0s-61.2,24.4-66.6,56.3h-26.9
	C288.7,24.4,261,0,227.5,0s-61.2,24.4-66.6,56.3h-26.9C128.7,24.4,101,0,67.5,0C30.2,0,0,30.2,0,67.5S30.2,135,67.5,135
	c33.8,0,61.8-24.8,66.7-57.3h26.5c4.9,32.4,32.9,57.3,66.7,57.3s61.8-24.8,66.7-57.3h26.5c4.9,32.4,32.9,57.3,66.7,57.3
	s61.8-24.8,66.7-57.3h26.5c4.9,32.4,32.9,57.3,66.7,57.3c37.3,0,67.5-30.2,67.5-67.5S584.8,0,547.5,0z"/>
</svg>
