<?xml version="1.0" encoding="utf-8"?>
<!-- Generator: Adobe Illustrator 24.0.1, SVG Export Plug-In . SVG Version: 6.00 Build 0)  -->
<svg version="1.1" id="Layer_1" xmlns="http://www.w3.org/2000/svg" xmlns:xlink="http://www.w3.org/1999/xlink" x="0px" y="0px"
	 viewBox="0 0 721.8 132.8" style="enable-background:new 0 0 721.8 132.8;" xml:space="preserve">
<style type="text/css">
	.st0{fill:#fefff1;}
</style>
<path class="st0" d="M655.4,0c-31.9,0-58.6,22.5-65,52.6h-20.1c-6.4-30-33-52.6-65-52.6s-58.6,22.5-65,52.6h-16.1
	c-6.4-30-33-52.6-65-52.6s-58.6,22.5-65,52.6h-15.1c-6.4-30-33-52.6-65-52.6s-58.6,22.5-65,52.6h-18.1C125,22.5,98.4,0,66.4,0
	C29.7,0,0,29.7,0,66.4s29.7,66.4,66.4,66.4c33.5,0,61.3-24.9,65.8-57.2h16.5c4.5,32.3,32.2,57.2,65.8,57.2
	c33.5,0,61.3-24.9,65.8-57.2h13.5c4.5,32.3,32.2,57.2,65.8,57.2c33.5,0,61.3-24.9,65.8-57.2h14.5c4.5,32.3,32.2,57.2,65.8,57.2
	c33.5,0,61.3-24.9,65.8-57.2h18.5c4.5,32.3,32.2,57.2,65.8,57.2c36.7,0,66.4-29.7,66.4-66.4S692.1,0,655.4,0z"/>
</svg>
